HIERARCHY
ROOT hip
{
  OFFSET 0 90.174 2.4664
  CHANNELS 6 Xposition Yposition Zposition Zrotation Xrotation Yrotation
  JOINT abdomen
  {
    OFFSET 0 -1.186 -1.5018
    CHANNELS 6 Xposition Yposition Zposition Zrotation Xrotation Yrotation
    JOINT abdomen2
    {
      OFFSET 0 9.964 0.2134
      CHANNELS 6 Xposition Yposition Zposition Zrotation Xrotation Yrotation
      JOINT chest
      {
        OFFSET 0 13.134 -3.2573
        CHANNELS 6 Xposition Yposition Zposition Zrotation Xrotation Yrotation
        JOINT neck
        {
          OFFSET 0 20.686 -1.6905
          CHANNELS 6 Xposition Yposition Zposition Zrotation Xrotation Yrotation
          JOINT head
          {
            OFFSET 0 7.238 -0.1237
            CHANNELS 6 Xposition Yposition Zposition Zrotation Xrotation Yrotation
            End Site
            {
              OFFSET 0 0 0
            }
          }
        }
        JOINT lCollar
        {
          OFFSET 1.7069 20.075 5.0056
          CHANNELS 6 Xposition Yposition Zposition Zrotation Xrotation Yrotation
          JOINT lShldr
          {
            OFFSET 13.6458 -0.047 -4.849
            CHANNELS 6 Xposition Yposition Zposition Zrotation Xrotation Yrotation
            JOINT lForeArm
            {
              OFFSET 28.3255 -0.9759 2.2888
              CHANNELS 6 Xposition Yposition Zposition Zrotation Xrotation Yrotation
              JOINT lHand
              {
                OFFSET 22.1583 -0.53 10.8316
                CHANNELS 6 Xposition Yposition Zposition Zrotation Xrotation Yrotation
                JOINT lThumb1
                {
                  OFFSET 0.786 0.112 2.5817
                  CHANNELS 6 Xposition Yposition Zposition Zrotation Xrotation Yrotation
                  JOINT lThumb2
                  {
                    OFFSET 0.3601 -0.878 4.2331
                    CHANNELS 6 Xposition Yposition Zposition Zrotation Xrotation Yrotation
                    JOINT lThumb2_End
                    {
                      OFFSET 1.8127 -1.216 2.2227
                      CHANNELS 6 Xposition Yposition Zposition Zrotation Xrotation Yrotation
                      End Site
                      {
                        OFFSET 0.0181 -0.0122 0.0222
                      }
                    }
                  }
                }
                JOINT lCarpal1
                {
                  OFFSET 0.9571 1.114 1.7695
                  CHANNELS 6 Xposition Yposition Zposition Zrotation Xrotation Yrotation
                  JOINT lIndex1
                  {
                    OFFSET 4.1246 0.487 4.1451
                    CHANNELS 6 Xposition Yposition Zposition Zrotation Xrotation Yrotation
                    JOINT lIndex2
                    {
                      OFFSET 3.4052 -1.454 2.7682
                      CHANNELS 6 Xposition Yposition Zposition Zrotation Xrotation Yrotation
                      JOINT lIndex2_End
                      {
                        OFFSET 1.4531 -1.795 1.2713
                        CHANNELS 6 Xposition Yposition Zposition Zrotation Xrotation Yrotation
                        End Site
                        {
                          OFFSET 0.0145 -0.0179 0.0127
                        }
                      }
                    }
                  }
                  JOINT lMid1
                  {
                    OFFSET 5.6954 0.21 2.1184
                    CHANNELS 6 Xposition Yposition Zposition Zrotation Xrotation Yrotation
                    JOINT lMid2
                    {
                      OFFSET 3.9766 -1.54 2.3863
                      CHANNELS 6 Xposition Yposition Zposition Zrotation Xrotation Yrotation
                      JOINT lMid2_End
                      {
                        OFFSET 1.4042 -1.926 1.125
                        CHANNELS 6 Xposition Yposition Zposition Zrotation Xrotation Yrotation
                        End Site
                        {
                          OFFSET 0.014 -0.0193 0.0113
                        }
                      }
                    }
                  }
                }
                JOINT lCarpal2
                {
                  OFFSET 2.0956 0.66 -0.3894
                  CHANNELS 6 Xposition Yposition Zposition Zrotation Xrotation Yrotation
                  JOINT lRing1
                  {
                    OFFSET 5.0395 -0.09 2.4971
                    CHANNELS 6 Xposition Yposition Zposition Zrotation Xrotation Yrotation
                    JOINT lRing2
                    {
                      OFFSET 3.7921 -1.552 1.4806
                      CHANNELS 6 Xposition Yposition Zposition Zrotation Xrotation Yrotation
                      JOINT lRing2_End
                      {
                        OFFSET 1.4655 -1.808 0.9609
                        CHANNELS 6 Xposition Yposition Zposition Zrotation Xrotation Yrotation
                        End Site
                        {
                          OFFSET 0.0147 -0.0181 0.0096
                        }
                      }
                    }
                  }
                  JOINT lPinky1
                  {
                    OFFSET 4.9141 -1.269 0.3591
                    CHANNELS 6 Xposition Yposition Zposition Zrotation Xrotation Yrotation
                    JOINT lPinky2
                    {
                      OFFSET 3.1477 -1.685 0.8462
                      CHANNELS 6 Xposition Yposition Zposition Zrotation Xrotation Yrotation
                      JOINT lPinky2_End
                      {
                        OFFSET 0.8055 -1.585 0.7955
                        CHANNELS 6 Xposition Yposition Zposition Zrotation Xrotation Yrotation
                        End Site
                        {
                          OFFSET 0.0081 -0.0158 0.008
                        }
                      }
                    }
                  }
                }
              }
            }
          }
        }
        JOINT rCollar
        {
          OFFSET -1.7069 20.075 5.0056
          CHANNELS 6 Xposition Yposition Zposition Zrotation Xrotation Yrotation
          JOINT rShldr
          {
            OFFSET -13.6458 -0.047 -4.849
            CHANNELS 6 Xposition Yposition Zposition Zrotation Xrotation Yrotation
            JOINT rForeArm
            {
              OFFSET -28.3255 -0.9759 2.2888
              CHANNELS 6 Xposition Yposition Zposition Zrotation Xrotation Yrotation
              JOINT rHand
              {
                OFFSET -22.1583 -0.53 10.8316
                CHANNELS 6 Xposition Yposition Zposition Zrotation Xrotation Yrotation
                JOINT rThumb1
                {
                  OFFSET -0.786 0.112 2.5817
                  CHANNELS 6 Xposition Yposition Zposition Zrotation Xrotation Yrotation
                  JOINT rThumb2
                  {
                    OFFSET -0.3601 -0.878 4.2331
                    CHANNELS 6 Xposition Yposition Zposition Zrotation Xrotation Yrotation
                    JOINT rThumb2_End
                    {
                      OFFSET -1.8127 -1.216 2.2227
                      CHANNELS 6 Xposition Yposition Zposition Zrotation Xrotation Yrotation
                      End Site
                      {
                        OFFSET -0.0181 -0.0122 0.0222
                      }
                    }
                  }
                }
                JOINT rCarpal1
                {
                  OFFSET -0.9571 1.114 1.7695
                  CHANNELS 6 Xposition Yposition Zposition Zrotation Xrotation Yrotation
                  JOINT rIndex1
                  {
                    OFFSET -4.1246 0.487 4.1451
                    CHANNELS 6 Xposition Yposition Zposition Zrotation Xrotation Yrotation
                    JOINT rIndex2
                    {
                      OFFSET -3.4052 -1.454 2.7682
                      CHANNELS 6 Xposition Yposition Zposition Zrotation Xrotation Yrotation
                      JOINT rIndex2_End
                      {
                        OFFSET -1.4531 -1.795 1.2713
                        CHANNELS 6 Xposition Yposition Zposition Zrotation Xrotation Yrotation
                        End Site
                        {
                          OFFSET -0.0145 -0.018 0.0127
                        }
                      }
                    }
                  }
                  JOINT rMid1
                  {
                    OFFSET -5.6954 0.21 2.1184
                    CHANNELS 6 Xposition Yposition Zposition Zrotation Xrotation Yrotation
                    JOINT rMid2
                    {
                      OFFSET -3.9766 -1.54 2.3863
                      CHANNELS 6 Xposition Yposition Zposition Zrotation Xrotation Yrotation
                      JOINT rMid2_End
                      {
                        OFFSET -1.4042 -1.926 1.125
                        CHANNELS 6 Xposition Yposition Zposition Zrotation Xrotation Yrotation
                        End Site
                        {
                          OFFSET -0.014 -0.0193 0.0113
                        }
                      }
                    }
                  }
                }
                JOINT rCarpal2
                {
                  OFFSET -2.0956 0.66 -0.3894
                  CHANNELS 6 Xposition Yposition Zposition Zrotation Xrotation Yrotation
                  JOINT rRing1
                  {
                    OFFSET -5.0395 -0.09 2.4971
                    CHANNELS 6 Xposition Yposition Zposition Zrotation Xrotation Yrotation
                    JOINT rRing2
                    {
                      OFFSET -3.7921 -1.552 1.4806
                      CHANNELS 6 Xposition Yposition Zposition Zrotation Xrotation Yrotation
                      JOINT rRing2_End
                      {
                        OFFSET -1.4655 -1.808 0.9609
                        CHANNELS 6 Xposition Yposition Zposition Zrotation Xrotation Yrotation
                        End Site
                        {
                          OFFSET -0.0147 -0.0181 0.0096
                        }
                      }
                    }
                  }
                  JOINT rPinky1
                  {
                    OFFSET -4.9141 -1.269 0.3592
                    CHANNELS 6 Xposition Yposition Zposition Zrotation Xrotation Yrotation
                    JOINT rPinky2
                    {
                      OFFSET -3.1477 -1.685 0.8462
                      CHANNELS 6 Xposition Yposition Zposition Zrotation Xrotation Yrotation
                      JOINT rPinky2_End
                      {
                        OFFSET -0.8055 -1.585 0.7955
                        CHANNELS 6 Xposition Yposition Zposition Zrotation Xrotation Yrotation
                        End Site
                        {
                          OFFSET -0.0081 -0.0158 0.008
                        }
                      }
                    }
                  }
                }
              }
            }
          }
        }
      }
    }
  }
  JOINT lThigh
  {
    OFFSET 8.367 -8.2066 0.5982
    CHANNELS 6 Xposition Yposition Zposition Zrotation Xrotation Yrotation
    JOINT lShin
    {
      OFFSET 2.1923 -43.463 -0.4932
      CHANNELS 6 Xposition Yposition Zposition Zrotation Xrotation Yrotation
      JOINT lFoot
      {
        OFFSET 0.7333 -45.8593 -2.6451
        CHANNELS 6 Xposition Yposition Zposition Zrotation Xrotation Yrotation
        End Site
        {
          OFFSET 2.6618 -4.2699 12.3931
        }
      }
    }
  }
  JOINT rThigh
  {
    OFFSET -8.367 -8.2066 0.5982
    CHANNELS 6 Xposition Yposition Zposition Zrotation Xrotation Yrotation
    JOINT rShin
    {
      OFFSET -2.1923 -43.463 -0.4931
      CHANNELS 6 Xposition Yposition Zposition Zrotation Xrotation Yrotation
      JOINT rFoot
      {
        OFFSET -0.7333 -45.8593 -2.6451
        CHANNELS 6 Xposition Yposition Zposition Zrotation Xrotation Yrotation
        End Site
        {
          OFFSET -2.6618 -4.2699 12.3931
        }
      }
    }
  }
}
MOTION
Frames:	4
Frame Time:	0.0333333
0.852882 1.97762 -9.92202 -180 -89.9981 -180 0 -1.186 -1.5018 -0.0237918 10.2862 -0.157283 1.11022e-016 9.964 0.2134 -0.0187975 20.5724 -0.318041 0 13.134 -3.2573 -0.0187975 20.5724 -0.318041 1.11022e-016 20.686 -1.6905 1.60781 8.37709 26.5875 1.77636e-015 7.238 -0.1237 -0.108281 0.690611 24.9915 1.7069 20.075 5.0056 -7.73476 -0.188524 8.98532 13.6458 -0.047 -4.849 -69.6296 4.02415 34.4961 28.3255 -0.9759 2.2888 33.4649 2.4139 -57.6324 22.1583 -0.53 10.8316 9.96277 18.898 -9.74044 0.786 0.112 2.5817 -2.25366e-006 6.46709e-007 5.6942e-007 0.3601 -0.878 4.2331 -2.25366e-006 6.46709e-007 5.6942e-007 1.8127 -1.216 2.2227 -1.60695e-006 2.90037e-006 6.69243e-007 0.9571 1.114 1.7695 3.97569e-016 -2.38542e-015 3.18055e-015 4.1246 0.487 4.1451 -2.25366e-006 6.46709e-007 5.6942e-007 3.4052 -1.454 2.7682 -2.25366e-006 6.46709e-007 5.6942e-007 1.4531 -1.795 1.2713 -1.60695e-006 2.90037e-006 6.69243e-007 5.6954 0.21 2.1184 -2.25366e-006 6.46709e-007 5.6942e-007 3.9766 -1.54 2.3863 -2.25366e-006 6.46709e-007 5.6942e-007 1.4042 -1.926 1.125 -1.60695e-006 2.90037e-006 6.69243e-007 2.0956 0.66 -0.3894 3.97569e-016 -2.38542e-015 3.18055e-015 5.0395 -0.09 2.4971 -2.25366e-006 6.46709e-007 5.6942e-007 3.7921 -1.552 1.4806 -2.25366e-006 6.46709e-007 5.6942e-007 1.4655 -1.808 0.9609 -1.60695e-006 2.90037e-006 6.69243e-007 4.9141 -1.269 0.3591 -2.25366e-006 6.46709e-007 5.6942e-007 3.1477 -1.685 0.8462 -2.25366e-006 6.46709e-007 5.6942e-007 0.8055 -1.585 0.7955 -1.60695e-006 2.90037e-006 6.69243e-007 -1.7069 20.075 5.0056 0.243494 -8.16481 5.2028 -13.6458 -0.047 -4.849 56.2577 29.818 19.2984 -28.3255 -0.9759 2.2888 39.55 5.51143 49.883 -22.1583 -0.53 10.8316 -29.8585 -6.89994 -11.9555 -0.786 0.112 2.5817 -1.80703e-006 2.00631e-006 1.27659e-006 -0.3601 -0.878 4.2331 -1.59028e-015 4.47266e-016 3.97569e-016 -1.8127 -1.216 2.2227 -1.59028e-015 2.48481e-016 1.19271e-015 -0.9571 1.114 1.7695 2.75869e-032 9.93923e-016 -1.59028e-015 -4.1246 0.487 4.1451 -1.80703e-006 2.00631e-006 1.27659e-006 -3.4052 -1.454 2.7682 2.27592e-032 -1.09332e-015 1.19271e-015 -1.4531 -1.795 1.2713 -1.59028e-015 2.98177e-016 3.97569e-016 -5.6954 0.21 2.1184 -1.80703e-006 2.00631e-006 1.27659e-006 -3.9766 -1.54 2.3863 2.27592e-032 -1.09332e-015 1.19271e-015 -1.4042 -1.926 1.125 -1.59028e-015 2.98177e-016 3.97569e-016 -2.0956 0.66 -0.3894 2.75869e-032 9.93923e-016 -1.59028e-015 -5.0395 -0.09 2.4971 -1.80703e-006 2.00631e-006 1.27659e-006 -3.7921 -1.552 1.4806 2.27592e-032 -1.09332e-015 1.19271e-015 -1.4655 -1.808 0.9609 -1.59028e-015 2.98177e-016 3.97569e-016 -4.9141 -1.269 0.3592 -1.80703e-006 2.00631e-006 1.27659e-006 -3.1477 -1.685 0.8462 2.27592e-032 -1.09332e-015 1.19271e-015 -0.8055 -1.585 0.7955 -1.59028e-015 2.98177e-016 3.97569e-016 8.367 -8.2066 0.5982 5.51725 3.90401 -24.9822 2.1923 -43.463 -0.4932 -5.61958 3.09173 0.0448979 0.7333 -45.8593 -2.6451 16.4867 -3.08554 4.13937 -8.367 -8.2066 0.5982 -38.0296 -45.2371 -8.96582 -2.1923 -43.463 -0.4931 172.246 80.8981 -177.634 -0.7333 -45.8593 -2.6451 -36.9452 43.7665 56.9646 
0.851902 1.97744 -9.92211 -180 -89.9981 -180 0 -1.186 -1.5018 -0.0278186 10.103 -0.156029 1.11022e-016 9.964 0.2134 -0.0278364 20.2061 -0.314512 0 13.134 -3.2573 -0.0278364 20.2061 -0.314512 -1.11022e-016 20.686 -1.6905 1.49711 9.06462 26.6073 -1.77636e-015 7.238 -0.1237 -0.100691 0.998104 24.9921 1.7069 20.075 5.0056 -7.23896 0.0577088 9.22378 13.6458 -0.047 -4.849 -70.0044 3.88046 34.5984 28.3255 -0.9759 2.2888 33.443 2.49249 -57.8445 22.1583 -0.53 10.8316 9.49329 19.5276 -9.37435 0.786 0.112 2.5817 -6.36111e-015 7.35503e-015 -3.18055e-015 0.3601 -0.878 4.2331 -1.98785e-015 6.75868e-015 -6.36111e-015 1.8127 -1.216 2.2227 -1.19271e-015 2.78299e-015 -0 0.9571 1.114 1.7695 -4.77083e-015 5.56597e-015 -0 4.1246 0.487 4.1451 -1.98785e-015 5.36719e-015 9.54166e-015 3.4052 -1.454 2.7682 -3.18055e-015 2.98177e-015 -9.54166e-015 1.4531 -1.795 1.2713 1.98785e-015 -1.98785e-016 3.18055e-015 5.6954 0.21 2.1184 -1.98785e-015 5.36719e-015 9.54166e-015 3.9766 -1.54 2.3863 -3.18055e-015 2.98177e-015 -9.54166e-015 1.4042 -1.926 1.125 1.98785e-015 -1.98785e-016 3.18055e-015 2.0956 0.66 -0.3894 -4.77083e-015 5.56597e-015 -0 5.0395 -0.09 2.4971 -1.98785e-015 5.36719e-015 9.54166e-015 3.7921 -1.552 1.4806 -3.18055e-015 2.98177e-015 -9.54166e-015 1.4655 -1.808 0.9609 1.98785e-015 -1.98785e-016 3.18055e-015 4.9141 -1.269 0.3591 -1.98785e-015 5.36719e-015 9.54166e-015 3.1477 -1.685 0.8462 -3.18055e-015 2.98177e-015 -9.54166e-015 0.8055 -1.585 0.7955 1.98785e-015 -1.98785e-016 3.18055e-015 -1.7069 20.075 5.0056 0.671667 -7.6226 5.46075 -13.6458 -0.047 -4.849 55.9979 29.6786 19.4186 -28.3255 -0.9759 2.2888 39.6926 5.11743 48.8853 -22.1583 -0.53 10.8316 -29.398 -7.00749 -12.159 -0.786 0.112 2.5817 -1.59028e-015 -1.73937e-015 1.59028e-015 -0.3601 -0.878 4.2331 1.59028e-015 -5.01931e-015 1.98785e-015 -1.8127 -1.216 2.2227 -1.59028e-015 -5.06901e-015 1.59028e-015 -0.9571 1.114 1.7695 2.41386e-032 -1.73937e-015 7.95139e-016 -4.1246 0.487 4.1451 1.59028e-015 -3.35449e-014 7.55382e-015 -3.4052 -1.454 2.7682 1.40693e-031 -3.37934e-015 2.38542e-015 -1.4531 -1.795 1.2713 -1.59028e-015 1.19271e-015 7.95139e-016 -5.6954 0.21 2.1184 1.59028e-015 -3.35449e-014 7.55382e-015 -3.9766 -1.54 2.3863 1.40693e-031 -3.37934e-015 2.38542e-015 -1.4042 -1.926 1.125 -1.59028e-015 1.19271e-015 7.95139e-016 -2.0956 0.66 -0.3894 2.41386e-032 -1.73937e-015 7.95139e-016 -5.0395 -0.09 2.4971 1.59028e-015 -3.35449e-014 7.55382e-015 -3.7921 -1.552 1.4806 1.40693e-031 -3.37934e-015 2.38542e-015 -1.4655 -1.808 0.9609 -1.59028e-015 1.19271e-015 7.95139e-016 -4.9141 -1.269 0.3592 1.59028e-015 -3.35449e-014 7.55382e-015 -3.1477 -1.685 0.8462 1.40693e-031 -3.37934e-015 2.38542e-015 -0.8055 -1.585 0.7955 -1.59028e-015 1.19271e-015 7.95139e-016 8.367 -8.2066 0.5982 5.51785 3.90402 -24.9823 2.1923 -43.463 -0.4932 -5.61952 3.09172 0.0448696 0.7333 -45.8593 -2.6451 16.4861 -3.08574 4.1394 -8.367 -8.2066 0.5982 -36.8327 -45.3272 -7.52133 -2.1923 -43.463 -0.4931 172.258 80.8988 -177.676 -0.7333 -45.8593 -2.6451 -35.6381 44.2081 56.1797 
0.850918 1.97728 -9.9222 -180 -89.9981 -180 0 -1.186 -1.5018 -0.0318318 9.91983 -0.154809 -1.11022e-016 9.964 0.2134 -0.0368144 19.8397 -0.311096 -2.22045e-016 13.134 -3.2573 -0.0368143 19.8397 -0.311096 0 20.686 -1.6905 1.38585 9.75098 26.6284 1.77636e-015 7.238 -0.1237 -0.0931004 1.30561 24.9927 1.7069 20.075 5.0056 -6.74401 0.306108 9.46018 13.6458 -0.047 -4.849 -70.3791 3.73605 34.6998 28.3255 -0.9759 2.2888 33.4216 2.57115 -58.0566 22.1583 -0.53 10.8316 9.0174 20.1546 -9.00108 0.786 0.112 2.5817 2.25381e-006 -6.47057e-007 -5.68364e-007 0.3601 -0.878 4.2331 5.31099e-006 -2.74455e-006 -1.47106e-006 1.8127 -1.216 2.2227 8.03376e-007 -1.45043e-006 -3.34328e-007 0.9571 1.114 1.7695 -2.20695e-032 -1.98785e-016 -6.36111e-015 4.1246 0.487 4.1451 2.25381e-006 -6.47057e-007 -5.68364e-007 3.4052 -1.454 2.7682 5.31099e-006 -2.74455e-006 -1.47106e-006 1.4531 -1.795 1.2713 8.03376e-007 -1.45043e-006 -3.34328e-007 5.6954 0.21 2.1184 2.25381e-006 -6.47057e-007 -5.68364e-007 3.9766 -1.54 2.3863 5.31099e-006 -2.74455e-006 -1.47106e-006 1.4042 -1.926 1.125 8.03376e-007 -1.45043e-006 -3.34328e-007 2.0956 0.66 -0.3894 -2.20695e-032 -1.98785e-016 -6.36111e-015 5.0395 -0.09 2.4971 2.25381e-006 -6.47057e-007 -5.68364e-007 3.7921 -1.552 1.4806 5.31099e-006 -2.74455e-006 -1.47106e-006 1.4655 -1.808 0.9609 8.03376e-007 -1.45043e-006 -3.34328e-007 4.9141 -1.269 0.3591 2.25381e-006 -6.47057e-007 -5.68364e-007 3.1477 -1.685 0.8462 5.31099e-006 -2.74455e-006 -1.47106e-006 0.8055 -1.585 0.7955 8.03376e-007 -1.45043e-006 -3.34328e-007 -1.7069 20.075 5.0056 1.09705 -7.07822 5.71441 -13.6458 -0.047 -4.849 55.7387 29.5388 19.538 -28.3255 -0.9759 2.2888 39.8283 4.72061 47.8882 -22.1583 -0.53 10.8316 -28.9377 -7.11668 -12.3618 -0.786 0.112 2.5817 -3.18055e-015 -3.97569e-015 7.95139e-016 -0.3601 -0.878 4.2331 -3.18055e-015 -5.46658e-015 7.95139e-016 -1.8127 -1.216 2.2227 -3.18055e-015 -7.05686e-015 1.19271e-015 -0.9571 1.114 1.7695 -1.59028e-015 -6.95746e-016 3.97569e-016 -4.1246 0.487 4.1451 -1.59028e-015 -5.15846e-014 7.95139e-015 -3.4052 -1.454 2.7682 -3.18055e-015 -1.98785e-015 3.97569e-016 -1.4531 -1.795 1.2713 -0 -5.1684e-015 -0 -5.6954 0.21 2.1184 -1.59028e-015 -5.15846e-014 7.95139e-015 -3.9766 -1.54 2.3863 -3.18055e-015 -1.98785e-015 3.97569e-016 -1.4042 -1.926 1.125 -0 -5.1684e-015 -0 -2.0956 0.66 -0.3894 -1.59028e-015 -6.95746e-016 3.97569e-016 -5.0395 -0.09 2.4971 -1.59028e-015 -5.15846e-014 7.95139e-015 -3.7921 -1.552 1.4806 -3.18055e-015 -1.98785e-015 3.97569e-016 -1.4655 -1.808 0.9609 -0 -5.1684e-015 -0 -4.9141 -1.269 0.3592 -1.59028e-015 -5.15846e-014 7.95139e-015 -3.1477 -1.685 0.8462 -3.18055e-015 -1.98785e-015 3.97569e-016 -0.8055 -1.585 0.7955 -0 -5.1684e-015 -0 8.367 -8.2066 0.5982 5.51836 3.90351 -24.9824 2.1923 -43.463 -0.4932 -5.61958 3.09227 0.0449474 0.7333 -45.8593 -2.6451 16.4855 -3.08606 4.13947 -8.367 -8.2066 0.5982 -35.6284 -45.3971 -6.06976 -2.1923 -43.463 -0.4931 172.269 80.8984 -177.718 -0.7333 -45.8593 -2.6451 -34.3114 44.6375 55.3741 
0.849929 1.97714 -9.92227 -180 -89.9981 -180 0 -1.186 -1.5018 -0.0358318 9.73656 -0.153623 -1.11022e-016 9.964 0.2134 -0.0457329 19.4733 -0.307792 1.11022e-016 13.134 -3.2573 -0.045733 19.4733 -0.307792 0 20.686 -1.6905 1.27409 10.4388 26.651 5.32907e-015 7.238 -0.1237 -0.0855197 1.61313 24.9933 1.7069 20.075 5.0056 -6.24994 0.556573 9.6945 13.6458 -0.047 -4.849 -70.7534 3.591 34.8003 28.3255 -0.9759 2.2888 33.4004 2.6499 -58.2687 22.1583 -0.53 10.8316 8.53497 20.779 -8.6206 0.786 0.112 2.5817 -3.18055e-015 -5.76476e-015 9.54166e-015 0.3601 -0.878 4.2331 4.50772e-006 -1.29441e-006 -1.13592e-006 1.8127 -1.216 2.2227 1.21382e-031 -2.18663e-015 3.18055e-015 0.9571 1.114 1.7695 -1.98785e-015 -1.59028e-015 3.18055e-015 4.1246 0.487 4.1451 3.18055e-015 -6.75868e-015 1.90833e-014 3.4052 -1.454 2.7682 4.50772e-006 -1.29441e-006 -1.13592e-006 1.4531 -1.795 1.2713 -1.59028e-015 -2.38542e-015 3.18055e-015 5.6954 0.21 2.1184 3.18055e-015 -6.75868e-015 1.90833e-014 3.9766 -1.54 2.3863 4.50772e-006 -1.29441e-006 -1.13592e-006 1.4042 -1.926 1.125 -1.59028e-015 -2.38542e-015 3.18055e-015 2.0956 0.66 -0.3894 -1.98785e-015 -1.59028e-015 3.18055e-015 5.0395 -0.09 2.4971 3.18055e-015 -6.75868e-015 1.90833e-014 3.7921 -1.552 1.4806 4.50772e-006 -1.29441e-006 -1.13592e-006 1.4655 -1.808 0.9609 -1.59028e-015 -2.38542e-015 3.18055e-015 4.9141 -1.269 0.3591 3.18055e-015 -6.75868e-015 1.90833e-014 3.1477 -1.685 0.8462 4.50772e-006 -1.29441e-006 -1.13592e-006 0.8055 -1.585 0.7955 -1.59028e-015 -2.38542e-015 3.18055e-015 -1.7069 20.075 5.0056 1.51969 -6.53183 5.96381 -13.6458 -0.047 -4.849 55.4802 29.3984 19.6564 -28.3255 -0.9759 2.2888 39.9571 4.32115 46.8917 -22.1583 -0.53 10.8316 -28.4776 -7.22753 -12.5638 -0.786 0.112 2.5817 -3.18055e-015 -3.47873e-015 -0 -0.3601 -0.878 4.2331 -1.59028e-015 -7.7526e-015 1.19271e-015 -1.8127 -1.216 2.2227 -4.77083e-015 -7.45443e-015 1.59028e-015 -0.9571 1.114 1.7695 -1.59028e-015 2.88238e-015 -7.95139e-016 -4.1246 0.487 4.1451 1.59028e-015 -2.72335e-014 3.97569e-015 -3.4052 -1.454 2.7682 3.34491e-031 -9.64106e-015 1.98785e-015 -1.4531 -1.795 1.2713 -3.18055e-015 -6.26172e-015 1.19271e-015 -5.6954 0.21 2.1184 1.59028e-015 -2.72335e-014 3.97569e-015 -3.9766 -1.54 2.3863 3.34491e-031 -9.64106e-015 1.98785e-015 -1.4042 -1.926 1.125 -3.18055e-015 -6.26172e-015 1.19271e-015 -2.0956 0.66 -0.3894 -1.59028e-015 2.88238e-015 -7.95139e-016 -5.0395 -0.09 2.4971 1.59028e-015 -2.72335e-014 3.97569e-015 -3.7921 -1.552 1.4806 3.34491e-031 -9.64106e-015 1.98785e-015 -1.4655 -1.808 0.9609 -3.18055e-015 -6.26172e-015 1.19271e-015 -4.9141 -1.269 0.3592 1.59028e-015 -2.72335e-014 3.97569e-015 -3.1477 -1.685 0.8462 3.34491e-031 -9.64106e-015 1.98785e-015 -0.8055 -1.585 0.7955 -3.18055e-015 -6.26172e-015 1.19271e-015 8.367 -8.2066 0.5982 5.51895 3.90354 -24.9824 2.1923 -43.463 -0.4932 -5.6195 3.09226 0.0449416 0.7333 -45.8593 -2.6451 16.4849 -3.08635 4.13953 -8.367 -8.2066 0.5982 -34.4213 -45.4446 -4.61495 -2.1923 -43.463 -0.4931 172.28 80.899 -177.759 -0.7333 -45.8593 -2.6451 -32.9654 45.0542 54.5479 
